# xmcd
#
# Track frame offsets: 
#        150
#        28541
#        62444
#        93748
#        120407
#        150464
#        174044
#        214438
#        252511
#        275251
#        302674
#        326093
#
# Disc length: 4721 seconds
#
# Revision: 0
# Processed by: cddbd v1.5.2PL0 Copyright (c) Steve Scherf et al.
# Submitted via: ExactAudioCopy v0.95a5
#
DISCID=9d126f0c
DTITLE=FoxStreat AllStars - Tough Talk
DYEAR=2013
DGENRE=Blues
TTITLE0=Too Good
TTITLE1=Been Turin
TTITLE2=Holdin On
TTITLE3=What Know
TTITLE4=Upstreram
TTITLE5=If I'm Wrong
TTITLE6=Turn The Corner
TTITLE7=Living For The City
TTITLE8=Heard That Line
TTITLE9=Take It On Leave It
TTITLE10=]Saturday Night
TTITLE11=W.S. Waleott Medicine Show
EXTD=
EXTT0=
EXTT1=
EXTT2=
EXTT3=
EXTT4=
EXTT5=
EXTT6=
EXTT7=
EXTT8=
EXTT9=
EXTT10=
EXTT11=
PLAYORDER=
